<?xml version="1.0" encoding="iso-8859-1"?>
<!-- Generator: Adobe Illustrator 19.0.0, SVG Export Plug-In . SVG Version: 6.00 Build 0)  -->
<svg version="1.1" id="Layer_1" xmlns="http://www.w3.org/2000/svg" xmlns:xlink="http://www.w3.org/1999/xlink" x="0px" y="0px"
	 viewBox="0 0 512 512" style="enable-background:new 0 0 512 512;" xml:space="preserve">
<g>
	<g>
		<path d="M256,0C126.613,0,21.333,105.28,21.333,234.667v160c0,37.504,27.904,68.352,64,73.579v1.088
			C85.333,492.864,104.469,512,128,512c23.531,0,42.667-19.136,42.667-42.667V320c0-23.531-19.136-42.667-42.667-42.667
			c-23.531,0-42.667,19.136-42.667,42.667v-85.333C85.333,140.565,161.899,64,256,64s170.667,76.565,170.667,170.667V320
			c0-23.531-19.136-42.667-42.667-42.667c-23.531,0-42.667,19.136-42.667,42.667v149.333C341.333,492.864,360.469,512,384,512
			c23.531,0,42.667-19.136,42.667-42.667v-1.088c36.096-5.227,64-36.075,64-73.579v-160C490.667,105.28,385.387,0,256,0z
			 M85.312,446.955c-24.299-4.992-42.645-26.539-42.645-52.288c0-4.8,0.853-9.408,2.069-13.888c0.32-1.173,0.683-2.325,1.067-3.456
			c1.365-3.968,3.093-7.765,5.333-11.285c0.235-0.363,0.384-0.789,0.619-1.131c2.496-3.691,5.589-6.933,8.96-9.92
			c0.896-0.811,1.835-1.557,2.795-2.304c3.648-2.816,7.552-5.355,11.925-7.189c3.157-1.323,6.464-2.368,9.877-3.051V446.955z
			 M426.667,446.912V342.4c3.435,0.704,6.72,1.728,9.877,3.051c4.395,1.835,8.277,4.395,11.925,7.189
			c0.96,0.747,1.899,1.515,2.795,2.325c3.349,2.987,6.464,6.229,8.939,9.92c0.235,0.363,0.384,0.768,0.619,1.131
			c2.24,3.499,3.968,7.317,5.333,11.264c0.405,1.152,0.768,2.283,1.088,3.477c1.237,4.501,2.091,9.109,2.091,13.909
			C469.333,420.416,450.987,441.963,426.667,446.912z"/>
	</g>
</g>
<g>
</g>
<g>
</g>
<g>
</g>
<g>
</g>
<g>
</g>
<g>
</g>
<g>
</g>
<g>
</g>
<g>
</g>
<g>
</g>
<g>
</g>
<g>
</g>
<g>
</g>
<g>
</g>
<g>
</g>
</svg>
